<?xml version="1.0" encoding="UTF-8"?>
<svg id="razorheads" xmlns="http://www.w3.org/2000/svg" version="1.1" viewBox="0 0 5895.1 865.2">
  <!-- Generator: Adobe Illustrator 29.1.0, SVG Export Plug-In . SVG Version: 2.1.0 Build 142)  -->
  <defs>
    <style>
      .st0 {
        fill: #fff;
      }
    </style>
  </defs>
  <path class="st0" d="M540.3,322.8l-69.6,90.5c-32.5-34.7-74.2-52.1-125.1-52.1s-52.7,5.3-74.2,15.8c-17.8,8.7-34.5,21.7-50.4,39v409.1h-113v-409.1l-80-80.3,73.1-76.7,57.8,59.4c7.5-6,15.1-12,22.6-18,20-13.9,41.2-25.1,63.9-33.8,32.8-12.4,66.2-18.6,100.2-18.6s70.1,6.5,105,19.5,64.8,31.4,89.7,55.1Z"/>
  <path class="st0" d="M1142.7,748.7l-73,76.6-58.2-57c-7.9,6-15.9,11.8-23.8,17.4-20.4,13.1-42.7,24-66.8,32.6-33.6,12-66.8,18-99.6,18-82.3,0-151.9-29.1-208.9-87.3s-85.5-127.1-85.5-206.7,29.1-147,87.2-205.8c58.2-58.8,127.3-88.2,207.4-88.2s95.6,11.8,140.5,35.3,78.6,53.2,100.9,89.1v296.9l79.8,79.2ZM949.9,668.4v-252.3c-18.5-17.3-37.2-30.3-56.1-39-22.7-10.6-47-15.8-73.1-15.8-51,0-93.9,17.9-128.6,53.7-34.8,35.8-52.1,78.2-52.1,127.3s17.9,90.5,53.8,126.7c35.9,36.2,78.2,54.3,127,54.3s51.3-5,73.4-15,40.7-23.3,55.8-39.9Z"/>
  <path class="st0" d="M1715.6,825.3h-565l327-452.9h-215c0-.1,0,56.9,0,56.9h-113v-170h558.2l-328.3,453h223.1v-57h113v170Z"/>
  <path class="st0" d="M2343,542.8c0,81-28.9,150.2-86.6,207.5-57.8,57.3-127.2,85.9-208.4,85.9s-150.6-28.6-208.4-85.9c-57.8-57.3-86.6-126.5-86.6-207.5s28.9-150.4,86.6-208.1c57.8-57.7,127.2-86.5,208.4-86.5s150.6,28.8,208.4,86.5c57.8,57.7,86.6,127,86.6,208.1ZM2229,542.8c0-49.8-17.7-92.5-53.1-128.1-35.4-35.6-78-53.5-127.9-53.5s-92.6,17.8-128,53.5c-35.4,35.6-53,78.3-53,128.1s17.7,92.3,53,127.6,78,52.9,128,52.9,92.6-17.6,127.9-52.9,53.1-77.8,53.1-127.6Z"/>
  <path class="st0" d="M2879.4,322.8l-69.6,90.5c-32.5-34.7-74.2-52.1-125.1-52.1s-52.7,5.3-74.2,15.8c-17.8,8.7-34.5,21.7-50.4,39v409.1h-113v-409.1l-80-80.3,73.1-76.7,57.8,59.4c7.5-6,15.1-12,22.6-18,20-13.9,41.2-25.1,63.9-33.8,32.8-12.4,66.2-18.6,100.2-18.6s70.1,6.5,105,19.5,64.8,31.4,89.7,55.1Z"/>
  <path class="st0" d="M3455,826.3h-113v-282.8c0-50.9-18.2-94-54.5-129.3-36.3-35.3-78.4-52.9-126.2-52.9s-49.5,5.5-72.8,16.4c-21.1,9.8-38.6,22.7-52.5,38.6v410h-113V145.3h-57V32.3h170v244.9c36.6-19.2,78.1-28.9,124.6-28.9,80,0,148.5,27.7,205.5,83.1,59.2,57.3,88.9,128,88.9,212.1v282.8Z"/>
  <path class="st0" d="M4060,754.9c-25.7,25.2-56.3,45.1-92,59.6s-73.1,21.8-112.4,21.8c-73.6,0-137.4-23.6-191.3-70.8-50.6-44.2-82.7-99.9-96.2-167.2h-62.8v-113h62.3c13.2-66.2,46.4-121.9,99.6-167,54.7-46.6,117.5-70,188.5-70s75.8,7.3,110.7,21.8,65.6,34.9,92,61.3l-81,79.2c-15.5-15.5-33.8-27.5-54.9-36.2-21.1-8.7-43.4-13-66.8-13-41.5,0-78,12.4-109.3,37.2-27.9,22.2-48.3,51.1-61.1,86.8h216.2v113h-216.2c12.8,35.6,33,64.6,60.6,86.9,31.3,25.4,67.9,38.1,109.8,38.1s46.6-4.3,68.5-13.1,40.8-21,56.6-36.9l79.2,81.6Z"/>
  <path class="st0" d="M4715.2,748.7l-73,76.6-58.2-57c-7.9,6-15.9,11.8-23.8,17.4-20.4,13.1-42.7,24-66.8,32.6-33.6,12-66.8,18-99.6,18-82.3,0-151.9-29.1-208.9-87.3s-85.5-127.1-85.5-206.7,29.1-147,87.2-205.8c58.2-58.8,127.3-88.2,207.4-88.2s95.6,11.8,140.5,35.3,78.6,53.2,100.9,89.1v296.9l79.8,79.2ZM4522.4,668.4v-252.3c-18.5-17.3-37.2-30.3-56.1-39-22.7-10.6-47-15.8-73.1-15.8-51,0-93.9,17.9-128.6,53.7-34.8,35.8-52.1,78.2-52.1,127.3s17.9,90.5,53.8,126.7c35.9,36.2,78.2,54.3,127,54.3s51.3-5,73.4-15,40.7-23.3,55.8-39.9Z"/>
  <path class="st0" d="M5279.7,711.7c-21.9,35.5-55.8,65.1-101.7,88.9s-92.8,35.7-140.8,35.7c-83.5,0-153.4-29.1-209.9-87.3-56.5-58.2-84.7-127.1-84.7-206.7s28.9-147.5,86.8-206.1c57.8-58.6,126.9-87.9,207.2-87.9s45.5,2.7,69.8,7.9,44.4,13.4,60.2,24.3V32.3h113v679.4ZM5166.7,668.4v-252.3c-23.8-21.1-45.9-35.5-66.3-43.3-20.4-7.7-41.2-11.6-62.3-11.6-50.2,0-93.2,18.2-128.9,54.6-35.7,36.4-53.5,78.5-53.5,126.4s17.5,90,52.4,126.4,77.7,54.6,128.3,54.6,49.1-5.2,72.5-15.5c23.4-10.4,42.7-23.5,57.8-39.3Z"/>
  <path class="st0" d="M5869.7,657c-22.6,53.4-59,96.6-109.2,129.7-50.1,33.1-105.9,49.6-167.4,49.6s-84.3-10-123.8-29.9c-34-17.3-64.2-40.5-90.6-69.5l85.5-75.6c17,18.2,34.6,32.2,52.7,42.1,24.2,13.3,49.7,19.9,76.5,19.9s41.5-2.9,62.1-8.8c20.6-5.8,38.1-14.6,52.5-26.2l-347-264.9c23-52.3,58.9-94.6,107.6-126.8s101.5-48.3,158.5-48.3,94.3,11.1,137,33.3c38.5,20,71,46.9,97.4,80.8l-92.6,66.6c-14.7-20.3-34.6-36.7-59.7-49.1-25.1-12.4-52.4-18.6-81.8-18.6s-46.2,4.2-65.1,12.5c-9.8,4.2-24,12.9-42.5,26.1l349.9,257.1Z"/>
</svg>